<?xml version="1.0" encoding="utf-8"?>
<!-- Generator: Adobe Illustrator 15.0.0, SVG Export Plug-In . SVG Version: 6.00 Build 0)  -->
<!DOCTYPE svg PUBLIC "-//W3C//DTD SVG 1.1//EN" "http://www.w3.org/Graphics/SVG/1.1/DTD/svg11.dtd">
<svg version="1.1" id="Capa_1" xmlns="http://www.w3.org/2000/svg" xmlns:xlink="http://www.w3.org/1999/xlink" x="0px" y="0px"
	 width="113.3px" height="113.3px" viewBox="217.432 217.432 113.3 113.3" enable-background="new 217.432 217.432 113.3 113.3"
	 xml:space="preserve">
<g>
	<g>
		<path fill="#FFFFFF" d="M326.265,244.518c-2.951-2.95-6.51-4.426-10.681-4.426h-13.219l-3.009-8.025
			c-0.747-1.927-2.113-3.589-4.102-4.987c-1.986-1.396-4.022-2.096-6.108-2.096h-30.213c-2.085,0-4.122,0.699-6.108,2.096
			c-1.987,1.397-3.354,3.06-4.101,4.987l-3.01,8.025h-13.218c-4.171,0-7.73,1.476-10.681,4.426
			c-2.951,2.951-4.426,6.511-4.426,10.681v52.874c0,4.172,1.475,7.731,4.426,10.682c2.951,2.951,6.511,4.426,10.681,4.426h83.087
			c4.17,0,7.729-1.475,10.681-4.426c2.95-2.95,4.426-6.51,4.426-10.682v-52.874C330.691,251.029,329.214,247.469,326.265,244.518z
			 M292.716,300.314c-5.173,5.174-11.397,7.761-18.676,7.761s-13.503-2.587-18.677-7.761c-5.173-5.173-7.76-11.399-7.76-18.676
			c0-7.28,2.587-13.504,7.76-18.678c5.173-5.174,11.398-7.76,18.677-7.76c7.278,0,13.503,2.587,18.676,7.76
			c5.174,5.173,7.761,11.398,7.761,18.678C300.477,288.915,297.89,295.14,292.716,300.314z"/>
		<path fill="#FFFFFF" d="M274.04,264.642c-4.682,0-8.685,1.662-12.009,4.987c-3.324,3.324-4.986,7.327-4.986,12.01
			c0,4.68,1.662,8.683,4.986,12.008c3.324,3.324,7.327,4.985,12.009,4.985c4.681,0,8.684-1.661,12.008-4.985
			c3.324-3.325,4.987-7.326,4.987-12.008c0-4.683-1.663-8.686-4.987-12.01C282.724,266.304,278.721,264.642,274.04,264.642z"/>
	</g>
</g>
</svg>
